<svg width="28" height="29" viewBox="0 0 28 29" fill="none" xmlns="http://www.w3.org/2000/svg">
<path d="M28 14.5C28 22.2319 21.7319 28.5 14 28.5C6.26889 28.5 0 22.2319 0 14.5C0 6.76889 6.26889 0.5 14 0.5C21.7319 0.5 28 6.76889 28 14.5Z" fill="#FFCC4D"/>
<path d="M13.9999 17.6112C11.182 17.6112 9.31222 17.2829 6.99989 16.8334C6.47178 16.7315 5.44434 16.8334 5.44434 18.3889C5.44434 21.5 9.01822 25.3889 13.9999 25.3889C18.9808 25.3889 22.5554 21.5 22.5554 18.3889C22.5554 16.8334 21.528 16.7307 20.9999 16.8334C18.6876 17.2829 16.8178 17.6112 13.9999 17.6112Z" fill="#664500"/>
<path d="M7 18.3889C7 18.3889 9.33333 19.1667 14 19.1667C18.6667 19.1667 21 18.3889 21 18.3889C21 18.3889 19.4444 21.5 14 21.5C8.55556 21.5 7 18.3889 7 18.3889Z" fill="white"/>
<path d="M4.66752 16.0555C4.43108 16.0555 4.19774 15.9481 4.04452 15.7444C3.7863 15.4014 3.8563 14.9137 4.20008 14.6563C4.3113 14.573 6.4953 12.9584 9.53252 12.375C7.60752 11.4098 5.47097 11.3888 5.44375 11.3888C5.01441 11.3873 4.66674 11.0388 4.66752 10.6095C4.66752 10.1809 5.01519 9.83325 5.44452 9.83325C5.61641 9.83325 9.68497 9.86281 12.2166 12.3945C12.4391 12.6169 12.506 12.9514 12.3854 13.2423C12.2649 13.5331 11.981 13.7221 11.6667 13.7221C8.07886 13.7221 5.16219 15.8781 5.13341 15.8999C4.99341 16.0049 4.8293 16.0555 4.66752 16.0555ZM23.3326 16.0547C23.1709 16.0547 23.0075 16.0049 22.8675 15.9007C22.838 15.8781 19.9034 13.7221 16.3334 13.7221C16.0192 13.7221 15.7345 13.5331 15.6147 13.2423C15.4942 12.9514 15.5611 12.6169 15.7835 12.3945C18.316 9.86281 22.3837 9.83325 22.5556 9.83325C22.985 9.83325 23.3319 10.1809 23.3326 10.6095C23.3334 11.0388 22.9857 11.3873 22.5572 11.3888C22.5292 11.3888 20.3926 11.4098 18.4676 12.375C21.5049 12.9584 23.6889 14.5723 23.7993 14.6563C24.1423 14.9137 24.2123 15.3998 23.9556 15.7436C23.8032 15.9466 23.5699 16.0547 23.3326 16.0547Z" fill="#664500"/>
</svg>
