<svg width="28" height="29" viewBox="0 0 28 29" fill="none" xmlns="http://www.w3.org/2000/svg">
<path d="M14.2292 26.9585C21.5355 26.9585 27.4585 21.0355 27.4585 13.7292C27.4585 6.42293 21.5355 0.5 14.2292 0.5C6.92293 0.5 1 6.42293 1 13.7292C1 21.0355 6.92293 26.9585 14.2292 26.9585Z" fill="#FFCB4C"/>
<path d="M11.5243 16.8559C11.4115 16.7657 11.3236 16.6427 11.2815 16.4949C11.1773 16.1369 11.3827 15.7805 11.7407 15.7003C15.2643 14.9058 17.637 16.761 17.7374 16.8404C18.0362 17.0785 18.0946 17.498 17.872 17.7781C17.6495 18.0567 17.2277 18.0902 16.9296 17.8536C16.844 17.7882 14.9663 16.3571 12.1189 16.9991C11.9056 17.0466 11.6877 16.9867 11.5243 16.8559Z" fill="#65471B"/>
<path d="M10.431 11.2483C11.3443 11.2483 12.0847 10.3229 12.0847 9.18138C12.0847 8.03987 11.3443 7.1145 10.431 7.1145C9.51771 7.1145 8.77734 8.03987 8.77734 9.18138C8.77734 10.3229 9.51771 11.2483 10.431 11.2483Z" fill="#65471B"/>
<path d="M19.1903 12.0749C20.1036 12.0749 20.8439 11.1495 20.8439 10.008C20.8439 8.86653 20.1036 7.94116 19.1903 7.94116C18.277 7.94116 17.5366 8.86653 17.5366 10.008C17.5366 11.1495 18.277 12.0749 19.1903 12.0749Z" fill="#65471B"/>
<path d="M13.6659 27.8385C13.6659 27.8385 14.6503 27.5187 14.7779 26.7864C14.9125 26.03 14.2923 25.8782 14.2923 25.8782C14.2923 25.8782 15.1024 25.7164 15.2043 24.8074C15.3001 23.9507 14.5343 23.7468 14.5343 23.7468C14.5343 23.7468 15.2892 23.4355 15.325 22.5491C15.3545 21.8029 14.5507 21.4379 14.5507 21.4379C14.5507 21.4379 18.4712 20.4877 18.8743 20.3943C19.2758 20.3009 19.9015 19.9157 19.7062 19.0761C19.5124 18.2356 18.7692 18.2061 18.3856 18.2955C18.0012 18.385 13.1375 19.5142 11.4597 19.9048L10.3399 20.1648C9.91965 20.2636 9.729 20.0792 10.0255 19.7663C10.4208 19.3492 10.6737 18.8878 10.7617 18.122C10.8543 17.3166 10.5811 16.3221 10.4247 15.9361C10.1337 15.2194 9.64262 14.6528 9.07532 14.4583C8.19051 14.1548 7.56174 14.7081 7.87535 15.673C8.34537 17.1158 8.03721 18.2994 7.22711 19.0138C5.32133 20.6924 4.43497 21.8892 5.02484 24.4401C5.66918 27.2222 8.43098 29.0128 11.213 28.3684L13.6659 27.8385Z" fill="#F19020"/>
<path d="M7.45594 5.42816C7.32832 5.35968 7.22015 5.25385 7.15167 5.11766C6.98358 4.7846 7.12054 4.39628 7.4575 4.25231C10.7773 2.82745 13.4488 4.21885 13.5608 4.27877C13.8978 4.45854 14.034 4.86008 13.8651 5.1768C13.697 5.49197 13.2893 5.6017 12.9523 5.42427C12.8566 5.37524 10.7485 4.3099 8.06682 5.46084C7.86683 5.54567 7.64115 5.52699 7.45594 5.42816ZM16.8993 8.34638C16.7779 8.27011 16.6767 8.15728 16.6176 8.01642C16.4721 7.67246 16.6355 7.29504 16.9818 7.17286C20.391 5.97756 22.9622 7.5464 23.0696 7.6141C23.3925 7.81643 23.5015 8.22653 23.3124 8.53081C23.124 8.8343 22.7085 8.91601 22.3855 8.71602C22.2921 8.65999 20.2634 7.45457 17.5086 8.42108C17.3016 8.4919 17.0783 8.45688 16.8993 8.34638Z" fill="#65471B"/>
</svg>
