<svg width="28" height="29" viewBox="0 0 28 29" fill="none" xmlns="http://www.w3.org/2000/svg">
<path d="M28 14.5C28 22.2319 21.7319 28.5 14 28.5C6.26889 28.5 0 22.2319 0 14.5C0 6.76889 6.26889 0.5 14 0.5C21.7319 0.5 28 6.76889 28 14.5Z" fill="#FFCC4D"/>
<path d="M22.1331 14.3422C22.0864 14.2372 20.9672 11.7778 18.6666 11.7778C16.3667 11.7778 15.2467 14.2372 15.2 14.3422C15.1284 14.5032 15.1751 14.6914 15.3128 14.8018C15.4489 14.9123 15.6441 14.9162 15.7872 14.8127C15.7966 14.8057 16.7688 14.1112 18.6666 14.1112C20.5534 14.1112 21.5241 14.7964 21.5459 14.8119C21.6143 14.8633 21.6968 14.8889 21.7777 14.8889C21.8632 14.8889 21.9496 14.8602 22.0203 14.8042C22.158 14.6937 22.2054 14.5039 22.1331 14.3422ZM12.7998 14.3422C12.7531 14.2372 11.6339 11.7778 9.33322 11.7778C7.03334 11.7778 5.91334 14.2372 5.86667 14.3422C5.79511 14.5032 5.84178 14.6914 5.97867 14.8018C6.11556 14.9123 6.31078 14.9162 6.45311 14.8127C6.46322 14.8057 7.43467 14.1112 9.33322 14.1112C11.2201 14.1112 12.1908 14.7964 12.2126 14.8119C12.281 14.8633 12.3634 14.8889 12.4443 14.8889C12.5299 14.8889 12.6162 14.8602 12.687 14.8042C12.8254 14.6937 12.8713 14.5039 12.7998 14.3422ZM13.9999 17.6112C11.182 17.6112 9.31222 17.2829 6.99989 16.8334C6.47178 16.7315 5.44434 16.8334 5.44434 18.3889C5.44434 21.5001 9.01822 25.3889 13.9999 25.3889C18.9808 25.3889 22.5554 21.5001 22.5554 18.3889C22.5554 16.8334 21.528 16.7307 20.9999 16.8334C18.6876 17.2829 16.8178 17.6112 13.9999 17.6112Z" fill="#664500"/>
<path d="M7 18.3889C7 18.3889 9.33333 19.1667 14 19.1667C18.6667 19.1667 21 18.3889 21 18.3889C21 18.3889 19.4444 21.5 14 21.5C8.55556 21.5 7 18.3889 7 18.3889Z" fill="white"/>
</svg>
