<svg width="28" height="29" viewBox="0 0 28 29" fill="none" xmlns="http://www.w3.org/2000/svg">
<path d="M14 28.5C21.732 28.5 28 22.232 28 14.5C28 6.76801 21.732 0.5 14 0.5C6.26801 0.5 0 6.76801 0 14.5C0 22.232 6.26801 28.5 14 28.5Z" fill="#FFCC4D"/>
<path d="M21.2606 18.1004C21.1221 17.9751 20.9153 17.9674 20.7667 18.0778C20.7364 18.1004 17.7163 20.3334 14 20.3334C10.2931 20.3334 7.26292 18.1004 7.23337 18.0778C7.08481 17.9674 6.87792 17.9767 6.73948 18.1004C6.60181 18.2248 6.5707 18.4301 6.66637 18.5888C6.7667 18.756 9.16848 22.6667 14 22.6667C18.8316 22.6667 21.2341 18.756 21.3337 18.5888C21.4294 18.4294 21.399 18.2248 21.2606 18.1004ZM20.2223 15.2778C19.8964 15.2778 19.593 15.0717 19.4849 14.7458C19.327 14.2799 18.6924 12.9445 17.8889 12.9445C17.0629 12.9445 16.4197 14.3655 16.2929 14.7458C16.1568 15.1526 15.7205 15.3742 15.309 15.2374C14.9023 15.102 14.6814 14.6618 14.8175 14.2535C14.9155 13.961 15.8317 11.3889 17.8889 11.3889C19.9461 11.3889 20.8624 13.961 20.9596 14.2542C21.0957 14.6618 20.8756 15.1028 20.468 15.2381C20.3864 15.2646 20.3031 15.2778 20.2223 15.2778ZM12.4445 15.2778C12.1186 15.2778 11.8153 15.0717 11.7064 14.7458C11.5485 14.2799 10.9154 12.9445 10.1111 12.9445C9.28514 12.9445 8.6427 14.3655 8.51592 14.7458C8.37981 15.1526 7.94192 15.3742 7.53203 15.2374C7.12448 15.102 6.90436 14.6618 7.04048 14.2535C7.1377 13.961 8.05392 11.3889 10.1111 11.3889C12.1684 11.3889 13.0846 13.961 13.1826 14.2542C13.3187 14.6618 13.0986 15.1028 12.691 15.2381C12.6086 15.2646 12.5254 15.2778 12.4445 15.2778Z" fill="#664500"/>
<path d="M25.8027 6.96802C25.8027 6.96802 18.77 7.09324 13.9999 7.09324C10.9627 7.09324 2.17304 7.00146 2.17304 7.00146L1.76782 7.6828C4.1346 9.12635 8.8176 9.95157 13.9999 9.95157C19.1302 9.95157 23.7813 9.14268 26.1737 7.72713L26.2344 7.69057C26.2344 7.69057 25.9435 7.17413 25.8027 6.96802Z" fill="#FFAC33"/>
<path d="M18.4931 0.768342C17.5505 0.695231 16.5697 0.644675 15.5586 0.620564C15.0445 0.60812 14.5257 0.600342 13.9999 0.600342C13.4772 0.600342 12.9608 0.60812 12.4498 0.619786C11.4371 0.643897 10.4556 0.694453 9.51213 0.767564C4.15324 1.18445 0.131348 2.40634 0.131348 4.61212C0.131348 7.40279 6.5589 9.10067 13.9999 9.10067C21.4409 9.10067 27.8685 7.40279 27.8685 4.61212C27.8685 2.40712 23.8489 1.18601 18.4931 0.768342ZM13.9999 6.24234C8.66357 6.24234 3.95879 5.59445 3.95879 4.11434C3.95879 3.69745 4.34301 3.31868 5.00024 2.98734C5.89701 2.53545 7.31646 2.17534 9.03613 1.93812C10.5225 1.73434 12.2235 1.61923 13.9999 1.61923C15.7818 1.61923 17.4882 1.73434 18.9777 1.94045C20.7215 2.18156 22.1557 2.54945 23.047 3.01145C23.6747 3.33656 24.041 3.70679 24.041 4.11434C24.041 5.59445 19.3362 6.24234 13.9999 6.24234Z" fill="#5DADEC"/>
<path d="M18.9777 1.94132C20.7214 2.18243 22.1557 2.55032 23.047 3.01232L23.0952 3.02554C21.318 1.72354 19.5408 1.03443 18.4931 0.768429C17.5504 0.695317 16.5697 0.644762 15.5586 0.620651L15.5726 0.626095L18.9777 1.94132ZM5.00023 2.98821C5.897 2.53632 7.31645 2.17621 9.03611 1.93898L12.4319 0.626095L12.4498 0.619873C11.4371 0.643984 10.4556 0.69454 9.51211 0.767651C8.46445 1.03365 6.68645 1.72198 4.90845 3.02476L5.00023 2.98821Z" fill="#3B94D9"/>
<path d="M22.145 3.125C21.6316 2.78044 21.0981 2.41722 20.5886 2.145C18.6255 1.095 16.3824 0.5 14.0001 0.5C11.722 0.5 9.57065 1.04444 7.66898 2.00967C6.82198 2.43978 6.20598 2.78667 5.9812 3.125H22.145Z" fill="#FFCC4D"/>
</svg>
