<svg width="28" height="29" viewBox="0 0 28 29" fill="none" xmlns="http://www.w3.org/2000/svg">
<path d="M14 28.5C21.732 28.5 28 22.232 28 14.5C28 6.76801 21.732 0.5 14 0.5C6.26801 0.5 0 6.76801 0 14.5C0 22.232 6.26801 28.5 14 28.5Z" fill="#FFCC4D"/>
<path d="M12.4445 13.6895C12.1186 13.6895 11.8153 13.4834 11.7064 13.1575C11.5485 12.6916 10.9146 11.3561 10.1111 11.3561C9.28514 11.3561 8.6427 12.7771 8.51592 13.1575C8.37981 13.5642 7.94192 13.7859 7.53203 13.649C7.12448 13.5137 6.90436 13.0727 7.04048 12.6651C7.1377 12.3719 8.0547 9.7998 10.1119 9.7998C12.1691 9.7998 13.0854 12.3719 13.1834 12.6651C13.3195 13.0727 13.0994 13.5137 12.6918 13.649C12.6094 13.677 12.5261 13.6895 12.4445 13.6895ZM20.2223 13.6895C19.8964 13.6895 19.593 13.4834 19.4849 13.1575C19.327 12.6916 18.6924 11.3561 17.8889 11.3561C17.0629 11.3561 16.4197 12.7771 16.2929 13.1575C16.1568 13.5642 15.7205 13.7859 15.309 13.649C14.9023 13.5137 14.6814 13.0727 14.8175 12.6651C14.9147 12.3719 15.8317 9.7998 17.8881 9.7998C19.9446 9.7998 20.8616 12.3719 20.9588 12.6651C21.0949 13.0727 20.8748 13.5137 20.4673 13.649C20.3864 13.677 20.3039 13.6895 20.2223 13.6895ZM21.2606 16.5929C21.1221 16.4677 20.9153 16.4599 20.7667 16.5704C20.7364 16.5929 17.7163 18.8259 14 18.8259C10.2931 18.8259 7.26292 16.5929 7.23337 16.5704C7.08481 16.4599 6.87792 16.4692 6.73948 16.5929C6.60181 16.7174 6.5707 16.9227 6.66637 17.0814C6.7667 17.2486 9.16848 21.1592 14 21.1592C18.8316 21.1592 21.2341 17.2486 21.3337 17.0814C21.4294 16.9219 21.399 16.7181 21.2606 16.5929Z" fill="#664500"/>
<path d="M16.5114 3.57002C16.5114 3.75669 16.5347 3.93714 16.5752 4.11136C16.9057 6.16702 19.1916 8.33547 20.8296 8.93125C22.1246 8.46069 23.821 7.00547 24.6392 5.40091C23.0144 3.50314 20.8911 2.04558 18.4722 1.23047C17.3584 1.43036 16.5114 2.39869 16.5114 3.57002ZM10.689 23.1164C10.7333 22.9281 10.759 22.7321 10.759 22.5299C10.759 21.1042 9.60319 19.9485 8.17752 19.9485C7.31185 19.9485 6.54885 20.3755 6.07985 21.0288C5.61163 20.3762 4.84785 19.9485 3.98219 19.9485C3.01697 19.9485 2.18474 20.4844 1.74219 21.2691C3.16085 23.8319 5.35885 25.9024 8.0173 27.16C9.29052 26.1092 10.4525 24.5879 10.689 23.1164ZM26.6785 20.4439C26.4592 19.705 25.7825 19.1629 24.9721 19.1629C24.3724 19.1629 23.8435 19.4585 23.5192 19.9111C23.1949 19.4585 22.666 19.1629 22.0663 19.1629C21.0785 19.1629 20.2782 19.9632 20.2782 20.951C20.2782 21.091 20.2961 21.2264 20.3264 21.357C20.5652 22.8387 22.1526 24.3872 23.3667 24.9045C24.7481 23.66 25.8797 22.1457 26.6785 20.4439Z" fill="#FFAC33"/>
<path d="M26.1529 3.04249C26.1529 1.72649 25.0857 0.660156 23.7705 0.660156C22.9717 0.660156 22.2671 1.05449 21.8346 1.65727C21.4022 1.05449 20.6975 0.660156 19.8987 0.660156C18.5827 0.660156 17.5164 1.72649 17.5164 3.04249C17.5164 3.22916 17.5397 3.4096 17.5802 3.58382C17.9115 5.63949 20.1966 7.80793 21.8346 8.40371C23.4726 7.80793 25.7577 5.63949 26.0883 3.5846C26.1295 3.4096 26.1529 3.22916 26.1529 3.04249ZM9.49519 22.595C9.49519 21.1694 8.33941 20.0136 6.91374 20.0136C6.04807 20.0136 5.28507 20.4406 4.81607 21.0939C4.34785 20.4406 3.58407 20.0136 2.71841 20.0136C1.29274 20.0136 0.136963 21.1694 0.136963 22.595C0.136963 22.7973 0.16263 22.9925 0.206185 23.1815C0.564741 25.4083 3.04041 27.7579 4.8153 28.4035C6.59019 27.7587 9.06585 25.409 9.42441 23.1823C9.46952 22.9925 9.49519 22.7965 9.49519 22.595ZM27.9596 20.8209C27.9596 19.8332 27.1593 19.0328 26.1715 19.0328C25.5719 19.0328 25.043 19.3284 24.7186 19.781C24.3943 19.3284 23.8654 19.0328 23.2657 19.0328C22.278 19.0328 21.4776 19.8332 21.4776 20.8209C21.4776 20.9609 21.4955 21.0963 21.5259 21.2269C21.774 22.7693 23.489 24.3972 24.7186 24.8436C25.9475 24.3972 27.6633 22.7693 27.9106 21.2269C27.9417 21.0963 27.9596 20.9609 27.9596 20.8209Z" fill="#DD2E44"/>
</svg>
