<svg width="28" height="29" viewBox="0 0 28 29" fill="none" xmlns="http://www.w3.org/2000/svg">
<path d="M14 28.5C21.732 28.5 28 22.232 28 14.5C28 6.76801 21.732 0.5 14 0.5C6.26801 0.5 0 6.76801 0 14.5C0 22.232 6.26801 28.5 14 28.5Z" fill="#FFCC4D"/>
<path d="M8.1783 18.8719C8.2133 19.0111 9.08674 22.2778 14 22.2778C18.914 22.2778 19.7866 19.0111 19.8216 18.8719C19.8644 18.7031 19.7882 18.5281 19.6373 18.441C19.4856 18.3547 19.2959 18.3804 19.1706 18.5009C19.1559 18.5157 17.6509 19.9445 14 19.9445C10.3491 19.9445 8.8433 18.5157 8.8293 18.5017C8.75463 18.4278 8.65508 18.3889 8.55552 18.3889C8.49019 18.3889 8.42408 18.4052 8.36419 18.4387C8.21174 18.5258 8.13552 18.7024 8.1783 18.8719Z" fill="#664500"/>
<path d="M9.33336 13.7223C10.4072 13.7223 11.2778 12.5035 11.2778 11.0001C11.2778 9.49661 10.4072 8.27783 9.33336 8.27783C8.25947 8.27783 7.38892 9.49661 7.38892 11.0001C7.38892 12.5035 8.25947 13.7223 9.33336 13.7223Z" fill="#664500"/>
<path d="M18.6666 13.7223C19.7405 13.7223 20.6111 12.5035 20.6111 11.0001C20.6111 9.49661 19.7405 8.27783 18.6666 8.27783C17.5927 8.27783 16.7222 9.49661 16.7222 11.0001C16.7222 12.5035 17.5927 13.7223 18.6666 13.7223Z" fill="#664500"/>
</svg>
