<svg width="28" height="29" viewBox="0 0 28 29" fill="none" xmlns="http://www.w3.org/2000/svg">
<path d="M28 14.5C28 22.2319 21.7319 28.5 14 28.5C6.26811 28.5 0 22.2319 0 14.5C0 6.76811 6.26811 0.5 14 0.5C21.7319 0.5 28 6.76811 28 14.5Z" fill="#FFCC4D"/>
<path d="M13.9999 16.8333C11.182 16.8333 9.31222 16.5051 6.99989 16.0555C6.47178 15.9537 5.44434 16.0555 5.44434 17.6111C5.44434 20.7222 9.01822 24.6111 13.9999 24.6111C18.9808 24.6111 22.5554 20.7222 22.5554 17.6111C22.5554 16.0555 21.528 15.9529 20.9999 16.0555C18.6876 16.5051 16.8178 16.8333 13.9999 16.8333Z" fill="#664500"/>
<path d="M7 17.6111C7 17.6111 9.33333 18.3889 14 18.3889C18.6667 18.3889 21 17.6111 21 17.6111C21 17.6111 19.4444 20.7222 14 20.7222C8.55556 20.7222 7 17.6111 7 17.6111Z" fill="white"/>
<path d="M12.1972 3.93236L8.66451 4.55536L6.84451 1.24747C6.64385 0.88269 6.23162 0.687467 5.82407 0.759023C5.41418 0.831356 5.09529 1.15647 5.03151 1.56713L4.45207 5.29813L0.919402 5.92113C0.503291 5.99424 0.182068 6.32947 0.125291 6.74869C0.0685128 7.16791 0.289402 7.57547 0.672068 7.75747L3.83762 9.26013L3.25585 13.0028C3.19129 13.4197 3.40285 13.8304 3.77929 14.0209C3.91851 14.0909 4.06785 14.1244 4.2164 14.1244C4.47074 14.1244 4.72196 14.0248 4.9094 13.835L7.64096 11.0654L11.155 12.7337C11.5361 12.9141 11.9903 12.8294 12.2796 12.5221C12.569 12.2149 12.6265 11.7568 12.4235 11.3874L10.5973 8.0678L13.059 5.57269C13.3561 5.27169 13.4237 4.8128 13.2277 4.43791C13.0302 4.06302 12.611 3.86002 12.1972 3.93236ZM15.803 3.93236L19.3356 4.55536L21.1556 1.24747C21.3563 0.88269 21.7685 0.687467 22.1761 0.759023C22.5852 0.831356 22.9041 1.15647 22.9678 1.56713L23.5473 5.29813L27.08 5.92113C27.4968 5.99424 27.8181 6.32869 27.8741 6.74791C27.9301 7.16713 27.71 7.57469 27.3273 7.75669L24.1617 9.25936L24.7435 13.002C24.8081 13.4189 24.5965 13.8296 24.2201 14.0201C24.0808 14.0901 23.9315 14.1236 23.783 14.1236C23.5286 14.1236 23.2774 14.024 23.09 13.8342L20.3584 11.0646L16.8444 12.7329C16.4633 12.9134 16.0091 12.8286 15.7197 12.5214C15.4304 12.2141 15.3728 11.756 15.5758 11.3866L17.4021 8.0678L14.9404 5.57269C14.6433 5.27169 14.5756 4.8128 14.7716 4.43791C14.97 4.06302 15.3892 3.86002 15.803 3.93236Z" fill="#E95F28"/>
</svg>
