<svg width="28" height="29" viewBox="0 0 28 29" fill="none" xmlns="http://www.w3.org/2000/svg">
<path d="M27.6861 11.5669C29.3059 19.1254 24.4916 26.5666 16.9331 28.1864C9.37452 29.8062 1.9334 24.9919 0.313596 17.4333C-1.3062 9.87478 3.50887 2.43366 11.0666 0.813861C18.6252 -0.806716 26.0663 4.00836 27.6861 11.5669Z" fill="#FFCB4C"/>
<path d="M22.777 7.50765C23.3828 10.3351 21.5818 13.119 18.7544 13.7248C15.9269 14.3306 13.143 12.5296 12.5365 9.70211C11.9307 6.87466 13.7317 4.09075 16.5591 3.48498C19.3866 2.8792 22.1713 4.67941 22.777 7.50765Z" fill="#F4F7F9"/>
<path d="M17.3506 9.30868C18.2255 9.30868 18.9347 8.59949 18.9347 7.72465C18.9347 6.84982 18.2255 6.14062 17.3506 6.14062C16.4758 6.14062 15.7666 6.84982 15.7666 7.72465C15.7666 8.59949 16.4758 9.30868 17.3506 9.30868Z" fill="#292F33"/>
<path d="M10.9602 11.6058C11.3148 13.259 10.2611 14.8866 8.60789 15.2412C6.95465 15.5958 5.32708 14.5421 4.97248 12.8889C4.61788 11.2357 5.67157 9.60809 7.32481 9.25349C8.97804 8.89889 10.6056 9.95257 10.9602 11.6058Z" fill="#F4F7F9"/>
<path d="M8.28331 14.3068C9.09883 14.132 9.61828 13.3292 9.44352 12.5137C9.26876 11.6982 8.46598 11.1787 7.65046 11.3535C6.83494 11.5283 6.3155 12.331 6.49026 13.1466C6.66501 13.9621 7.46779 14.4815 8.28331 14.3068Z" fill="#292F33"/>
<path d="M14.4883 16.7808C11.7331 17.371 9.83726 17.4418 7.48183 17.4869C6.94449 17.4986 5.96156 17.8127 6.28739 19.3338C6.93904 22.3751 11.2479 25.428 16.1182 24.3845C20.9877 23.3409 23.6674 18.7902 23.0157 15.7489C22.6899 14.2279 21.6634 14.3429 21.1689 14.5545C19.0024 15.4775 17.2434 16.1906 14.4883 16.7808Z" fill="#65471B"/>
<path d="M8.55884 19.1658V23.8315C8.55884 26.1644 10.1141 28.4973 13.2246 28.4973C16.3351 28.4973 17.8904 26.1644 17.8904 23.8315V19.1658H8.55884Z" fill="#E8596E"/>
<path d="M13.2246 25.2929C13.4587 25.2929 13.6484 25.1031 13.6484 24.869V19.9739H12.8V24.869C12.8008 25.1031 12.9906 25.2929 13.2246 25.2929Z" fill="#DD2F45"/>
<path d="M7.80762 19.0079C7.80762 19.0079 10.2517 19.2793 14.814 18.3018C19.3764 17.3244 21.4946 16.0747 21.4946 16.0747C21.4946 16.0747 20.626 19.4418 15.3032 20.5826C9.98031 21.7234 7.80762 19.0079 7.80762 19.0079Z" fill="white"/>
</svg>
