<svg width="28" height="29" viewBox="0 0 28 29" fill="none" xmlns="http://www.w3.org/2000/svg">
<path d="M28 14.5C28 22.2319 21.7319 28.5 14 28.5C6.26811 28.5 0 22.2319 0 14.5C0 6.76811 6.26811 0.5 14 0.5C21.7319 0.5 28 6.76811 28 14.5Z" fill="#FFCC4D"/>
<path d="M14.0001 17.4937C11.6932 17.4937 10.1617 17.2246 8.26863 16.8567C7.83541 16.7743 6.99463 16.8567 6.99463 18.1307C6.99463 20.678 9.92141 23.8622 14.0001 23.8622C18.0787 23.8622 21.0055 20.678 21.0055 18.1307C21.0055 16.8567 20.164 16.7735 19.7315 16.8567C17.8384 17.2246 16.3077 17.4937 14.0001 17.4937Z" fill="#664500"/>
<path d="M12.95 3.05185C12.2819 1.16107 10.2091 0.168624 8.31753 0.83518C7.16953 1.23962 6.35675 2.16596 6.04019 3.2494C5.11386 2.60462 3.90053 2.39385 2.75408 2.79829C0.864082 3.46562 -0.129918 5.53996 0.538193 7.43074C0.633082 7.69829 0.759082 7.9464 0.905304 8.17585C2.42275 10.9618 6.80708 12.9203 9.46164 12.9444C11.5126 11.259 13.6974 6.98274 13.1312 3.86229C13.1016 3.59162 13.0433 3.3194 12.95 3.05185ZM15.05 3.05185C15.7181 1.16107 17.7916 0.168624 19.6824 0.83518C20.8304 1.23962 21.6432 2.16596 21.9605 3.2494C22.8869 2.60462 24.1002 2.39385 25.2466 2.79829C27.1366 3.46562 28.1299 5.53996 27.4633 7.43074C27.3676 7.69829 27.2424 7.9464 27.0954 8.17585C25.578 10.9618 21.1936 12.9203 18.5383 12.9444C16.4873 11.259 14.3033 6.98274 14.8695 3.86229C14.8983 3.59162 14.9566 3.3194 15.05 3.05185Z" fill="#DD2E44"/>
</svg>
