<svg width="28" height="29" viewBox="0 0 28 29" fill="none" xmlns="http://www.w3.org/2000/svg">
<path d="M28 14.5C28 22.2319 21.7319 28.5 14 28.5C6.26889 28.5 0 22.2319 0 14.5C0 6.76889 6.26889 0.5 14 0.5C21.7319 0.5 28 6.76889 28 14.5Z" fill="#FFCC4D"/>
<path d="M22.1333 14.342C22.0866 14.237 20.9674 11.7777 18.6667 11.7777C16.3668 11.7777 15.2468 14.237 15.2002 14.342C15.1286 14.503 15.1753 14.6913 15.3129 14.8017C15.449 14.9121 15.6443 14.916 15.7874 14.8126C15.7967 14.8056 16.7689 14.111 18.6667 14.111C20.5536 14.111 21.5243 14.7963 21.546 14.8118C21.6145 14.8631 21.6969 14.8888 21.7778 14.8888C21.8634 14.8888 21.9497 14.86 22.0205 14.804C22.1582 14.6936 22.2056 14.5038 22.1333 14.342ZM12.7999 14.342C12.7533 14.237 11.634 11.7777 9.33338 11.7777C7.03349 11.7777 5.91349 14.237 5.86683 14.342C5.79527 14.503 5.84194 14.6913 5.97883 14.8017C6.11571 14.9121 6.31094 14.916 6.45327 14.8126C6.46338 14.8056 7.43483 14.111 9.33338 14.111C11.2203 14.111 12.1909 14.7963 12.2127 14.8118C12.2812 14.8631 12.3636 14.8888 12.4445 14.8888C12.53 14.8888 12.6164 14.86 12.6872 14.804C12.8256 14.6936 12.8715 14.5038 12.7999 14.342ZM24.1112 12.9444C23.8032 12.9444 23.5107 12.7593 23.3886 12.4551C22.0057 8.99792 18.5485 8.26992 18.5135 8.26214C18.0927 8.17814 17.8189 7.76825 17.9037 7.3467C17.9877 6.92514 18.3976 6.6537 18.8192 6.73692C18.9949 6.77192 23.1405 7.64536 24.8329 11.8765C24.9924 12.2755 24.7979 12.7281 24.3989 12.8876C24.3056 12.9265 24.2076 12.9444 24.1112 12.9444ZM3.88894 12.9444C3.79249 12.9444 3.69527 12.9265 3.60038 12.8884C3.20138 12.7289 3.00771 12.2763 3.16716 11.8773C4.8596 7.64614 9.00516 6.7727 9.18094 6.7377C9.60327 6.65525 10.0116 6.9267 10.0964 7.34747C10.1804 7.76747 9.90816 8.17658 9.48894 8.26214C9.34505 8.2917 5.98427 9.02436 4.61149 12.4551C4.48938 12.7593 4.19694 12.9444 3.88894 12.9444ZM14 17.611C11.1822 17.611 9.31238 17.2828 7.00005 16.8333C6.47194 16.7314 5.44449 16.8333 5.44449 18.3888C5.44449 21.4999 9.01838 25.3888 14 25.3888C18.9809 25.3888 22.5556 21.4999 22.5556 18.3888C22.5556 16.8333 21.5282 16.7306 21 16.8333C18.6877 17.2828 16.8179 17.611 14 17.611Z" fill="#664500"/>
<path d="M7 18.3889C7 18.3889 9.33333 19.1667 14 19.1667C18.6667 19.1667 21 18.3889 21 18.3889C21 18.3889 19.4444 21.5 14 21.5C8.55556 21.5 7 18.3889 7 18.3889Z" fill="white"/>
<path d="M8.43645 22.4559C7.90756 24.538 5.792 25.7965 3.70989 25.2676C1.62856 24.7395 0.369336 22.6239 0.897447 20.5418C1.42556 18.4597 5.82623 13.7689 6.58067 13.9603C7.33511 14.1524 8.96456 20.3746 8.43645 22.4559ZM19.5478 22.4559C20.0767 24.538 22.1922 25.7965 24.2743 25.2676C26.3564 24.7395 27.6157 22.6239 27.0868 20.5418C26.5579 18.4597 22.1572 13.7689 21.4028 13.9603C20.6499 14.1524 19.0197 20.3746 19.5478 22.4559Z" fill="#5DADEC"/>
</svg>
