<svg width="28" height="29" viewBox="0 0 28 29" fill="none" xmlns="http://www.w3.org/2000/svg">
<path d="M28 14.5C28 22.2319 21.7319 28.5 14 28.5C6.26889 28.5 0 22.2319 0 14.5C0 6.76889 6.26889 0.5 14 0.5C21.7319 0.5 28 6.76889 28 14.5Z" fill="#FFCC4D"/>
<path d="M5.44434 17.0378C5.44434 20.121 9.019 24.0378 13.9999 24.0378C18.9808 24.0378 22.5554 20.149 22.5554 17.0378C22.5554 17.0378 14.5187 19.1814 5.44434 17.0378Z" fill="#664500"/>
<path d="M9.33325 18.3911V23.8052C9.33325 26.1386 10.8888 28.4719 13.9999 28.4719C17.111 28.4719 18.6666 26.1386 18.6666 23.8052V18.423C13.7736 19.4279 9.33325 18.3911 9.33325 18.3911Z" fill="#5D9040"/>
<path d="M9.55416 10.0899C8.96616 9.86279 8.41005 9.64813 8.41005 9.33701C8.41005 8.82446 9.0976 8.79801 9.23527 8.79801C9.72138 8.79801 9.96327 8.98001 10.1764 9.14101C10.3397 9.26468 10.5093 9.39224 10.7449 9.39224C11.1836 9.39224 11.3835 9.08346 11.3835 8.79646C11.3835 8.22401 10.6819 7.81957 9.93838 7.65001V7.34435C9.93838 6.94146 9.61094 6.61401 9.20805 6.61401C8.80516 6.61401 8.47772 6.94146 8.47772 7.34435V7.67568C7.58794 7.93468 7.04272 8.58879 7.04272 9.41401C7.04272 10.4337 8.04838 10.8521 8.93583 11.2208C9.57127 11.4852 10.1717 11.7349 10.1717 12.1246C10.1717 12.4092 9.81394 12.7172 9.23605 12.7172C8.65272 12.7172 8.31827 12.4839 8.02272 12.2786C7.81894 12.1362 7.62605 12.0017 7.39583 12.0017C7.06138 12.0017 6.80005 12.2832 6.80005 12.6426C6.80005 13.1707 7.52416 13.6972 8.47772 13.8823V14.2479C8.47772 14.6508 8.80516 14.9775 9.20805 14.9775C9.61094 14.9775 9.93838 14.65 9.93838 14.2479L9.93449 13.8606C10.9425 13.6156 11.5383 12.9101 11.5383 11.948C11.539 10.856 10.4385 10.4313 9.55416 10.0899ZM20.7619 11.9612C20.7619 10.8692 19.6614 10.4446 18.777 10.1031C18.189 9.87601 17.6337 9.66135 17.6337 9.35024C17.6337 8.83768 18.3213 8.81124 18.4589 8.81124C18.945 8.81124 19.1862 8.99324 19.4 9.15424C19.5642 9.2779 19.7329 9.40546 19.9678 9.40546C20.4073 9.40546 20.6072 9.09668 20.6072 8.80968C20.6072 8.23646 19.9056 7.83279 19.162 7.66324V7.35835C19.162 6.95546 18.8338 6.62801 18.4317 6.62801C18.0288 6.62801 17.7006 6.95546 17.7006 7.35835V7.68968C16.8116 7.94868 16.2656 8.60279 16.2656 9.42801C16.2656 10.4477 17.2713 10.8661 18.1587 11.2348C18.7942 11.4992 19.3946 11.7489 19.3946 12.1386C19.3946 12.4232 19.0376 12.7312 18.4597 12.7312C17.8764 12.7312 17.5419 12.4979 17.2472 12.2926C17.0426 12.1502 16.8497 12.0157 16.6203 12.0157C16.285 12.0157 16.0237 12.2972 16.0237 12.6566C16.0237 13.1847 16.7478 13.7112 17.7006 13.8963V14.2619C17.7006 14.664 18.0296 14.9915 18.4325 14.9915C18.8354 14.9915 19.162 14.664 19.162 14.2619L19.1597 13.8746C20.1669 13.628 20.7619 12.9233 20.7619 11.9612Z" fill="#664500"/>
<path d="M16.3099 24.6648C16.3099 23.6008 15.2374 23.1862 14.3756 22.8533C13.8024 22.6324 13.2603 22.4224 13.2603 22.1199C13.2603 21.6198 13.9299 21.5949 14.0645 21.5949C14.5382 21.5949 14.7738 21.773 14.9823 21.9293C15.1417 22.0499 15.3074 22.1743 15.5368 22.1743C15.9646 22.1743 16.1598 21.8726 16.1598 21.5933C16.1598 21.0357 15.4762 20.6413 14.7505 20.4757V20.1778C14.7505 19.785 14.4308 19.4653 14.0381 19.4653C13.6453 19.4653 13.3256 19.785 13.3256 20.1778V20.5006C12.4584 20.7526 11.9264 21.3911 11.9264 22.1953C11.9264 23.1893 12.9072 23.5977 13.7721 23.957C14.3919 24.2144 14.9768 24.4579 14.9768 24.8374C14.9768 25.1151 14.6284 25.4153 14.0645 25.4153C13.4959 25.4153 13.1701 25.1882 12.8823 24.9868C12.6839 24.8483 12.4957 24.7169 12.2717 24.7169C11.9458 24.7169 11.6899 24.9922 11.6899 25.3422C11.6899 25.8579 12.3954 26.3704 13.3248 26.5509V26.9079C13.3248 27.2999 13.6445 27.6188 14.0381 27.6188C14.4308 27.6188 14.7497 27.2999 14.7497 26.9079L14.7474 26.5299C15.7297 26.2896 16.3099 25.602 16.3099 24.6648Z" fill="white"/>
</svg>
