<svg width="28" height="29" viewBox="0 0 28 29" fill="none" xmlns="http://www.w3.org/2000/svg">
<path d="M23.8997 4.60031C29.3668 10.0674 29.3668 18.9326 23.8997 24.3997C18.4326 29.8668 9.56816 29.8668 4.10031 24.3997C-1.36677 18.9326 -1.36677 10.0674 4.10031 4.60031C9.56738 -0.866769 18.4318 -0.866769 23.8997 4.60031Z" fill="#FFCB4C"/>
<path d="M14.9949 15.4957C12.2773 18.2133 10.1578 19.6988 7.49313 21.4955C6.88568 21.907 5.99355 22.9959 7.49391 24.497C10.4938 27.4969 17.6915 27.8003 22.4951 22.9967C27.2995 18.1923 26.997 10.9954 23.9955 7.99468C22.4951 6.49355 21.4054 7.38645 20.9948 7.99468C19.1996 10.657 17.7133 12.7773 14.9949 15.4957Z" fill="#65471B"/>
<path d="M8.99414 22.9958C8.99414 22.9958 11.9948 21.4954 16.4951 16.9944C20.9962 12.4941 22.4958 9.49414 22.4958 9.49414C22.4958 9.49414 23.9953 13.9952 18.7453 19.2453C13.4952 24.4961 8.99414 22.9958 8.99414 22.9958Z" fill="white"/>
<path d="M6.42819 20.1265C6.26096 20.2937 6.01985 20.3832 5.76785 20.3466C5.34239 20.2859 5.04684 19.8924 5.10828 19.4669C5.12773 19.33 5.53062 16.6435 7.26587 14.0831C5.22262 14.7621 3.69659 16.2578 3.67715 16.2772C3.37303 16.5798 2.88069 16.579 2.57736 16.2749C2.27402 15.9715 2.27402 15.48 2.57736 15.1766C2.69869 15.0553 5.59673 12.1993 9.17689 12.1993C9.4919 12.1993 9.77501 12.3883 9.89557 12.6792C10.0161 12.97 9.94924 13.3045 9.72679 13.5269C7.18964 16.0641 6.65219 19.6513 6.64675 19.6863C6.62263 19.8605 6.54252 20.0121 6.42819 20.1265ZM19.6257 6.92741C19.5114 7.04174 19.3605 7.12186 19.1878 7.14675C19.1513 7.15219 15.5509 7.70287 13.0269 10.2268C12.8045 10.4492 12.47 10.5161 12.1792 10.3956C11.8883 10.275 11.6993 9.9919 11.6993 9.67689C11.6993 6.09595 14.5553 3.19869 14.6766 3.07736C14.98 2.77402 15.4715 2.77402 15.7749 3.07736C16.079 3.37992 16.0798 3.87303 15.7772 4.17637C15.757 4.19659 14.2613 5.72184 13.5823 7.76509C16.1428 6.02984 18.8285 5.62695 18.9654 5.6075C19.39 5.54684 19.7836 5.84084 19.845 6.26629C19.8832 6.51829 19.7937 6.76019 19.6257 6.92741Z" fill="#65471B"/>
<path d="M23.4121 9.87604C25.544 10.1358 27.4831 8.61758 27.7421 6.48488C28.0019 4.35296 26.4844 2.41394 24.3517 2.15415C22.2198 1.89515 16.2557 4.30318 16.1616 5.07553C16.0675 5.84709 21.2802 9.61548 23.4121 9.87604ZM9.45549 23.8327C9.71527 25.9646 8.19703 27.9036 6.06433 28.1626C3.93241 28.4224 1.99339 26.9049 1.73361 24.7722C1.47382 22.6396 3.88264 16.6755 4.65498 16.5814C5.42655 16.488 9.19493 21.7008 9.45549 23.8327Z" fill="#64AADD"/>
</svg>
