<svg width="28" height="29" viewBox="0 0 28 29" fill="none" xmlns="http://www.w3.org/2000/svg">
<path d="M0 14.5C0 6.76811 6.26811 0.5 14 0.5C21.7319 0.5 28 6.76811 28 14.5C28 22.2319 21.7319 28.5 14 28.5C6.26811 28.5 0 22.2319 0 14.5Z" fill="#FFCC4D"/>
<path d="M6.73945 10.5107C6.87789 10.6359 7.08478 10.6437 7.23334 10.5332C7.26367 10.5107 10.2838 8.27767 14 8.27767C17.7069 8.27767 20.7371 10.5107 20.7667 10.5332C20.9152 10.6437 21.1221 10.6343 21.2606 10.5107C21.3982 10.3862 21.4293 10.1809 21.3337 10.0222C21.2333 9.85578 18.8316 5.94434 14 5.94434C9.16845 5.94434 6.76589 9.855 6.66634 10.0222C6.57067 10.1817 6.601 10.3862 6.73945 10.5107Z" fill="#664500"/>
<path d="M8.94444 19.9444C10.0183 19.9444 10.8889 18.7257 10.8889 17.2222C10.8889 15.7188 10.0183 14.5 8.94444 14.5C7.87056 14.5 7 15.7188 7 17.2222C7 18.7257 7.87056 19.9444 8.94444 19.9444Z" fill="#664500"/>
<path d="M19.0555 19.9444C20.1294 19.9444 21 18.7257 21 17.2222C21 15.7188 20.1294 14.5 19.0555 14.5C17.9816 14.5 17.1111 15.7188 17.1111 17.2222C17.1111 18.7257 17.9816 19.9444 19.0555 19.9444Z" fill="#664500"/>
</svg>
